# xmcd
#
# Track frame offsets:
#	150
#	16827
#	33550
#	51322
#	66422
#	83730
#	100192
#	120090
#	138357
#	159595
#	171672
#	194162
#
# Disc length: 2740 seconds
#
# Revision: 0
# Processed by: cddbd v1.5.2PL0 Copyright (c) Steve Scherf et al.
# Submitted via: audiograbber 1.83.01
#
DISCID=a50ab20c
DTITLE=Stephen Ackles - One for the moon
DYEAR=1995
DGENRE=Rock
TTITLE0=Betina
TTITLE1=One for the moon
TTITLE2=Bring it right back home
TTITLE3=Rain, rain, rain, cry, cry, cry
TTITLE4=In my mothers eyes
TTITLE5=Truck driving Elvis
TTITLE6=love is cruel
TTITLE7=Ain't nobody for me
TTITLE8=Showbusiness has sure been good to me
TTITLE9=Come on
TTITLE10=I can't stop loving you
TTITLE11=Rollin
EXTD=
EXTT0=
EXTT1=
EXTT2=
EXTT3=
EXTT4=
EXTT5=
EXTT6=
EXTT7=
EXTT8=
EXTT9=
EXTT10=
EXTT11=
PLAYORDER=
